# File created by Blade
# Date/Time:  Tue Apr 07 20:57:09 2015
# Frame Rate: 120.000 fps
#------------------------------------------------------
:FULLY-SPECIFIED
:DEGREES
571
root -17.327650 31.967888 9.439049 234.351963 -84.640118 -192.172461
Spine 1.774408 -4.588288 -2.140817
Head -43.396368 1.402060 5.712073
LeftShoulder 0.329561 20.961082 34.242016
LeftArm 93.145498 -7.645021 -35.819959
LeftForeArm 25.839548 -0.000000 9.533640
LeftHand -0.393386 -0.000000 -17.403466
LeftHandThumb1 -26.253704 0.000000 33.147579
RightShoulder 5.745746 24.067676 -30.283657
RightArm 45.639300 -19.539921 65.437651
RightForeArm -23.205059 -0.000000 23.957954
RightHand 3.080058 0.000000 11.470908
RightHandThumb1 -24.326973 -0.000000 -32.862282
LeftUpLeg -66.639650 -3.687805 -0.423163
LeftLeg 23.081068 -0.000000 -0.000000
LeftFoot 1.631129 11.920991 -11.553044
LeftToeBase -15.917385 -0.000000 0.000000
RightUpLeg -69.064208 3.594348 -1.368150
RightLeg 24.501669 -0.000000 -0.000000
RightFoot 9.067739 -10.332249 -9.510728
RightToeBase -23.051411 -0.000000 0.000000
572
root -17.169968 31.813509 9.459901 237.525879 -84.589810 -194.466537
Spine 1.918883 -4.583891 -2.320305
Head -44.891571 1.359537 5.656464
LeftShoulder 0.889779 21.472298 33.282801
LeftArm 92.330868 -4.804116 -34.294076
LeftForeArm 26.183793 -0.000000 9.170700
LeftHand 0.100409 -0.000000 -16.815377
LeftHandThumb1 -26.253704 0.000000 33.147579
RightShoulder 5.857126 22.242049 -28.802273
RightArm 44.802314 -21.309325 65.419363
RightForeArm -23.429682 -0.000000 23.506347
RightHand 3.191505 -0.000000 11.699307
RightHandThumb1 -24.326973 -0.000000 -32.862282
LeftUpLeg -68.642994 -3.754688 -0.674187
LeftLeg 24.736101 -0.000000 -0.000000
LeftFoot 1.058122 11.640069 -11.652814
LeftToeBase -16.020135 -0.000000 0.000000
RightUpLeg -71.164700 3.328805 -1.508998
RightLeg 26.332724 -0.000000 -0.000000
RightFoot 8.482802 -10.172861 -9.596983
RightToeBase -23.585471 -0.000000 0.000000
573
root -17.016877 31.654092 9.467805 239.489833 -84.514267 -195.573251
Spine 2.083010 -4.523128 -2.495133
Head -46.374273 1.386608 5.620558
LeftShoulder 1.356904 22.095674 32.277340
LeftArm 91.599260 -1.990440 -33.047686
LeftForeArm 26.244550 -0.000000 8.766755
LeftHand 0.547413 -0.000000 -16.576432
LeftHandThumb1 -26.253704 0.000000 33.147579
RightShoulder 5.859122 20.447036 -27.312775
RightArm 43.920637 -23.117956 65.398403
RightForeArm -23.600719 -0.000000 23.104718
RightHand 2.994588 -0.000000 12.067199
RightHandThumb1 -24.326973 -0.000000 -32.862282
LeftUpLeg -70.665612 -3.651160 -0.932606
LeftLeg 26.506607 -0.000000 -0.000000
LeftFoot 0.485203 11.174761 -11.765748
LeftToeBase -16.203069 -0.000000 0.000000
RightUpLeg -73.234777 3.259041 -1.747487
RightLeg 28.197763 -0.000000 -0.000000
RightFoot 7.651041 -10.046903 -9.231528
RightToeBase -23.099765 -0.000000 0.000000
574
root -16.863502 31.492670 9.481381 242.277416 -84.464300 -197.424003
Spine 2.121471 -4.568599 -2.623543
Head -47.786472 1.393561 5.470682
LeftShoulder 1.804194 22.830983 31.187842
LeftArm 90.821834 0.829319 -32.138530
LeftForeArm 26.238313 -0.000000 8.359573
LeftHand 0.994531 -0.000000 -16.769612
LeftHandThumb1 -26.253704 0.000000 33.147579
RightShoulder 5.808956 18.571275 -25.931484
RightArm 43.100222 -24.955475 65.271229
RightForeArm -23.704143 0.000000 22.671402
RightHand 3.006824 -0.000000 12.192612
RightHandThumb1 -24.326973 -0.000000 -32.862282
LeftUpLeg -72.786020 -3.695145 -1.077106
LeftLeg 28.232550 -0.000000 -0.000000
LeftFoot -0.032654 10.734430 -12.196091
LeftToeBase -16.207984 -0.000000 0.000000
RightUpLeg -75.421929 3.080462 -2.004706
RightLeg 30.074717 -0.000000 -0.000000
RightFoot 7.111559 -9.815857 -9.175266
RightToeBase -23.457697 -0.000000 0.000000
575
root -16.719717 31.322288 9.482490 244.051979 -84.433293 -198.400517
Spine 2.285785 -4.555528 -2.718047
Head -49.172191 1.435624 5.333737
LeftShoulder 2.201378 23.503475 30.031898
LeftArm 89.912174 3.669841 -31.683788
LeftForeArm 26.636986 -0.000000 8.040529
LeftHand 1.529947 -0.000000 -16.472757
LeftHandThumb1 -26.253704 0.000000 33.147579
RightShoulder 5.657591 16.646168 -24.596027
RightArm 42.307279 -26.767033 65.176222
RightForeArm -23.908984 -0.000000 22.201832
RightHand 3.010291 -0.000000 11.778799
RightHandThumb1 -24.326973 -0.000000 -32.862282
LeftUpLeg -74.808662 -3.653209 -1.136856
LeftLeg 30.074977 -0.000000 -0.000000
LeftFoot -0.640438 10.221352 -12.682089
LeftToeBase -15.960221 -0.000000 0.000000
RightUpLeg -77.405283 3.052411 -2.287502
RightLeg 31.798350 -0.000000 -0.000000
RightFoot 6.989813 -9.713386 -9.799609
RightToeBase -24.550589 -0.000000 0.000000
